# xmcd
#
# Track frame offsets: 
#        150
#        24565
#        39993
#        63436
#        95408
#        126447
#        162950
#
# Disc length: 2725 seconds
#
# Revision: 0
# Processed by: cddbd v1.4PL0 Copyright (c) Steve Scherf et al.
# Submitted via: ExactAudioCopy v0.90b4
#
DISCID=560aa307
DTITLE=Johnny Winter - Live im Anker_Leipzig_ CD 2
DYEAR=2003
DGENRE=Blues
TTITLE0=Messin' With The Kid
TTITLE1=Tore Down
TTITLE2=Mona
TTITLE3=Sen-Sa-Shun - Got My Mojo Working
TTITLE4=Johnny Guitar
TTITLE5=Mojo Boogie
TTITLE6=Highway 61 Revisited
EXTD=
EXTT0=
EXTT1=
EXTT2=
EXTT3=
EXTT4=
EXTT5=
EXTT6=
PLAYORDER=
